<svg width="802" height="179" viewBox="0 0 802 179" fill="none" xmlns="http://www.w3.org/2000/svg">
<path d="M0.940001 16H58.18C71.86 16 83.92 18.64 94.36 23.92C104.92 29.08 113.08 36.4 118.84 45.88C124.72 55.36 127.66 66.4 127.66 79C127.66 91.6 124.72 102.64 118.84 112.12C113.08 121.6 104.92 128.98 94.36 134.26C83.92 139.42 71.86 142 58.18 142H0.940001V16ZM56.74 118.06C69.34 118.06 79.36 114.58 86.8 107.62C94.36 100.54 98.14 91 98.14 79C98.14 67 94.36 57.52 86.8 50.56C79.36 43.48 69.34 39.94 56.74 39.94H30.1V118.06H56.74ZM193.751 143.44C183.551 143.44 174.371 141.34 166.211 137.14C158.171 132.82 151.871 126.88 147.311 119.32C142.751 111.76 140.471 103.18 140.471 93.58C140.471 83.98 142.751 75.4 147.311 67.84C151.871 60.28 158.171 54.4 166.211 50.2C174.371 45.88 183.551 43.72 193.751 43.72C203.951 43.72 213.071 45.88 221.111 50.2C229.151 54.4 235.451 60.28 240.011 67.84C244.571 75.4 246.851 83.98 246.851 93.58C246.851 103.18 244.571 111.76 240.011 119.32C235.451 126.88 229.151 132.82 221.111 137.14C213.071 141.34 203.951 143.44 193.751 143.44ZM193.751 120.4C200.951 120.4 206.831 118 211.391 113.2C216.071 108.28 218.411 101.74 218.411 93.58C218.411 85.42 216.071 78.94 211.391 74.14C206.831 69.22 200.951 66.76 193.751 66.76C186.551 66.76 180.611 69.22 175.931 74.14C171.251 78.94 168.911 85.42 168.911 93.58C168.911 101.74 171.251 108.28 175.931 113.2C180.611 118 186.551 120.4 193.751 120.4ZM324.48 43.72C336.48 43.72 346.14 47.32 353.46 54.52C360.9 61.72 364.62 72.4 364.62 86.56V142H336.54V90.88C336.54 83.2 334.86 77.5 331.5 73.78C328.14 69.94 323.28 68.02 316.92 68.02C309.84 68.02 304.2 70.24 300 74.68C295.8 79 293.7 85.48 293.7 94.12V142H265.62V45.16H292.44V56.5C296.16 52.42 300.78 49.3 306.3 47.14C311.82 44.86 317.88 43.72 324.48 43.72ZM429.133 43.72C444.133 43.72 455.653 47.32 463.693 54.52C471.733 61.6 475.753 72.34 475.753 86.74V142H449.473V129.94C444.193 138.94 434.353 143.44 419.953 143.44C412.513 143.44 406.033 142.18 400.513 139.66C395.113 137.14 390.973 133.66 388.093 129.22C385.213 124.78 383.773 119.74 383.773 114.1C383.773 105.1 387.133 98.02 393.853 92.86C400.693 87.7 411.193 85.12 425.353 85.12H447.673C447.673 79 445.813 74.32 442.093 71.08C438.373 67.72 432.793 66.04 425.353 66.04C420.193 66.04 415.093 66.88 410.053 68.56C405.133 70.12 400.933 72.28 397.453 75.04L387.373 55.42C392.653 51.7 398.953 48.82 406.273 46.78C413.713 44.74 421.333 43.72 429.133 43.72ZM426.973 124.54C431.773 124.54 436.033 123.46 439.753 121.3C443.473 119.02 446.113 115.72 447.673 111.4V101.5H428.413C416.893 101.5 411.133 105.28 411.133 112.84C411.133 116.44 412.513 119.32 415.273 121.48C418.153 123.52 422.053 124.54 426.973 124.54ZM563.627 137.32C560.867 139.36 557.447 140.92 553.367 142C549.407 142.96 545.207 143.44 540.767 143.44C529.247 143.44 520.307 140.5 513.947 134.62C507.707 128.74 504.587 120.1 504.587 108.7V68.92H489.647V47.32H504.587V23.74H532.667V47.32H556.787V68.92H532.667V108.34C532.667 112.42 533.687 115.6 535.727 117.88C537.887 120.04 540.887 121.12 544.727 121.12C549.167 121.12 552.947 119.92 556.067 117.52L563.627 137.32ZM579.39 45.16H607.47V142H579.39V45.16ZM593.43 31.66C588.27 31.66 584.07 30.16 580.83 27.16C577.59 24.16 575.97 20.44 575.97 16C575.97 11.56 577.59 7.83999 580.83 4.84C584.07 1.83999 588.27 0.339989 593.43 0.339989C598.59 0.339989 602.79 1.77999 606.03 4.66C609.27 7.54 610.89 11.14 610.89 15.46C610.89 20.14 609.27 24.04 606.03 27.16C602.79 30.16 598.59 31.66 593.43 31.66ZM664.31 47.32H689.15V68.92H665.03V142H636.95V68.92H622.01V47.32H636.95V43C636.95 31.96 640.19 23.2 646.67 16.72C653.27 10.24 662.51 6.99999 674.39 6.99999C678.59 6.99999 682.55 7.47999 686.27 8.43999C690.11 9.28 693.29 10.54 695.81 12.22L688.43 32.56C685.19 30.28 681.41 29.14 677.09 29.14C668.57 29.14 664.31 33.82 664.31 43.18V47.32ZM801.018 45.16L757.278 147.94C752.838 159.1 747.318 166.96 740.718 171.52C734.238 176.08 726.378 178.36 717.138 178.36C712.098 178.36 707.118 177.58 702.198 176.02C697.278 174.46 693.258 172.3 690.137 169.54L700.398 149.56C702.558 151.48 705.018 152.98 707.778 154.06C710.658 155.14 713.478 155.68 716.238 155.68C720.078 155.68 723.198 154.72 725.598 152.8C727.998 151 730.158 147.94 732.078 143.62L732.438 142.72L690.497 45.16H719.478L746.658 110.86L774.018 45.16H801.018Z" fill="url(#paint0_linear_208_29)"/>
<defs>
<linearGradient id="paint0_linear_208_29" x1="35" y1="78" x2="772.5" y2="78" gradientUnits="userSpaceOnUse">
<stop stop-color="#6D78DD"/>
<stop offset="1" stop-color="#F450C6"/>
</linearGradient>
</defs>
</svg>
